<svg version="1.1" xmlns="http://www.w3.org/2000/svg" viewBox="0 0 875 413" width="1750" height="826">
  <!-- svg-source:excalidraw -->
  
  <defs>
    <style class="style-fonts">
      @font-face {
        font-family: "Virgil";
        src: url("https://excalidraw.com/Virgil.woff2");
      }
      @font-face {
        font-family: "Cascadia";
        src: url("https://excalidraw.com/Cascadia.woff2");
      }
    </style>
  </defs>
  <rect x="0" y="0" width="875" height="413" fill="#ffffff"></rect><g stroke-linecap="round" transform="translate(10 10) rotate(0 57 58.5)"><path d="M30.8 6.59 C37.8 1.92, 48.1 0.29, 56.81 0.4 C65.52 0.52, 75.26 3.15, 83.07 7.29 C90.87 11.43, 98.57 17.96, 103.62 25.25 C108.67 32.54, 112.23 42.02, 113.37 51.03 C114.5 60.04, 113.49 70.95, 110.44 79.31 C107.4 87.66, 101.69 95.09, 95.1 101.15 C88.51 107.22, 79.38 113.47, 70.89 115.69 C62.41 117.9, 52.63 116.69, 44.2 114.44 C35.76 112.19, 26.94 107.91, 20.29 102.19 C13.64 96.48, 7.47 88.61, 4.28 80.14 C1.09 71.67, 0.31 60.59, 1.15 51.38 C1.99 42.16, 3.92 32.72, 9.32 24.85 C14.72 16.98, 28.69 7.43, 33.57 4.16 C38.44 0.89, 38.14 4.25, 38.57 5.24 M61.84 -0.14 C70.32 -0.39, 79.47 3.89, 86.82 8.77 C94.17 13.64, 101.23 21.2, 105.94 29.11 C110.65 37.03, 114.42 46.94, 115.1 56.24 C115.78 65.53, 113.98 76.98, 110.03 84.89 C106.08 92.8, 98.94 98.67, 91.4 103.7 C83.86 108.73, 73.61 113.29, 64.79 115.07 C55.97 116.86, 46.55 116.89, 38.5 114.41 C30.45 111.92, 22.63 106.6, 16.49 100.15 C10.35 93.7, 4.27 84.71, 1.68 75.72 C-0.91 66.73, -1.14 55.13, 0.95 46.21 C3.04 37.28, 8.62 29.26, 14.21 22.16 C19.8 15.06, 26.48 7.5, 34.51 3.6 C42.55 -0.3, 58.11 -0.82, 62.44 -1.27 C66.76 -1.71, 60.58 -0.22, 60.47 0.92" stroke="#000000" stroke-width="1" fill="none"></path></g><g transform="translate(21.5 42.5) rotate(0 45.5 26)"><text x="45.5" y="18" font-family="Virgil, Segoe UI Emoji" font-size="20px" fill="#000000" text-anchor="middle" style="white-space: pre;" direction="ltr">Input A</text><text x="45.5" y="44" font-family="Virgil, Segoe UI Emoji" font-size="20px" fill="#000000" text-anchor="middle" style="white-space: pre;" direction="ltr">value = 1</text></g><g stroke-linecap="round" transform="translate(320 10) rotate(0 77.5 75)"><path d="M53.27 4.48 C63 0.05, 76.07 -0.28, 86.98 1 C97.89 2.29, 109.37 6.24, 118.72 12.19 C128.07 18.13, 136.95 27.39, 143.07 36.67 C149.19 45.95, 154.05 57.29, 155.43 67.87 C156.81 78.45, 155.21 90.1, 151.34 100.13 C147.46 110.16, 140.5 120.24, 132.19 128.06 C123.88 135.87, 112.28 143.3, 101.46 147.01 C90.65 150.73, 78.26 151.98, 67.31 150.37 C56.36 148.75, 45.2 143.18, 35.77 137.33 C26.33 131.47, 16.51 124.41, 10.71 115.24 C4.92 106.06, 1.98 93.37, 0.98 82.29 C-0.01 71.2, 1.01 58.97, 4.75 48.73 C8.49 38.48, 13.84 28.72, 23.42 20.79 C33.01 12.87, 54.46 4.27, 62.26 1.17 C70.07 -1.93, 69.92 0.99, 70.23 2.2 M103.45 5.11 C113.58 7.25, 122.93 13.76, 130.94 21.28 C138.96 28.81, 147.75 40.11, 151.53 50.27 C155.32 60.42, 155.21 71.71, 153.66 82.23 C152.11 92.76, 147.92 104.22, 142.24 113.42 C136.56 122.61, 128.59 131.33, 119.59 137.42 C110.58 143.5, 99.54 148.55, 88.21 149.95 C76.89 151.36, 62.61 149.34, 51.62 145.84 C40.63 142.33, 30.21 136.23, 22.26 128.92 C14.3 121.61, 7.65 112.37, 3.91 101.97 C0.16 91.57, -1.32 77.56, -0.22 66.54 C0.88 55.52, 4.77 44.76, 10.5 35.84 C16.23 26.92, 24.49 18.84, 34.17 12.99 C43.84 7.15, 57.03 2.24, 68.54 0.78 C80.04 -0.67, 97.68 3.67, 103.19 4.24 C108.71 4.82, 102.35 3.01, 101.62 4.25" stroke="#000000" stroke-width="1" fill="none"></path></g><g transform="translate(328.5 72) rotate(0 69 13)"><text x="69" y="18" font-family="Virgil, Segoe UI Emoji" font-size="20px" fill="#000000" text-anchor="middle" style="white-space: pre;" direction="ltr">op(x) = x ^ 2</text></g><g stroke-linecap="round" transform="translate(14 257.5) rotate(0 57.5 58.5)"><path d="M81.12 5.05 C89.45 7.69, 97.66 15.5, 103.05 22.49 C108.44 29.49, 111.71 38.17, 113.45 47.02 C115.19 55.88, 116.03 66.96, 113.48 75.63 C110.93 84.3, 104.66 92.73, 98.17 99.06 C91.69 105.39, 82.91 110.83, 74.55 113.62 C66.2 116.42, 56.57 117.18, 48.06 115.83 C39.55 114.47, 30.71 110.93, 23.47 105.49 C16.23 100.05, 8.66 91.43, 4.63 83.19 C0.6 74.95, -1.16 64.93, -0.72 56.05 C-0.27 47.17, 2.75 37.88, 7.3 29.91 C11.84 21.94, 19.02 13.21, 26.56 8.25 C34.1 3.28, 43.05 0.26, 52.53 0.12 C62.01 -0.03, 77.53 5.72, 83.45 7.39 C89.36 9.05, 88.21 9.34, 88.02 10.13 M57.48 0.33 C65.88 -0.52, 74.66 2.31, 82.26 6.22 C89.86 10.13, 97.66 16.55, 103.07 23.77 C108.48 31, 113.27 40.28, 114.73 49.58 C116.19 58.88, 114.75 70.9, 111.84 79.57 C108.94 88.25, 104.17 95.93, 97.32 101.63 C90.47 107.32, 79.53 111.27, 70.75 113.76 C61.97 116.25, 53.16 118.24, 44.62 116.57 C36.09 114.89, 26.51 109.78, 19.54 103.69 C12.58 97.6, 5.8 88.84, 2.84 80.04 C-0.12 71.24, 0.62 59.74, 1.76 50.88 C2.9 42.01, 4.91 34.28, 9.68 26.84 C14.46 19.41, 22.57 10.57, 30.4 6.25 C38.23 1.92, 52.24 1.66, 56.68 0.9 C61.11 0.15, 57.04 0.76, 57 1.72" stroke="#000000" stroke-width="1" fill="none"></path></g><g transform="translate(22.5 290) rotate(0 48.5 26)"><text x="48.5" y="18" font-family="Virgil, Segoe UI Emoji" font-size="20px" fill="#000000" text-anchor="middle" style="white-space: pre;" direction="ltr">Input B</text><text x="48.5" y="44" font-family="Virgil, Segoe UI Emoji" font-size="20px" fill="#000000" text-anchor="middle" style="white-space: pre;" direction="ltr">value = 11</text></g><g stroke-linecap="round"><g transform="translate(126.61656690818756 74.59215219827433) rotate(0 93.49500958195705 5.339385978605719)"><path d="M-0.29 0.79 C31 2.57, 156.12 9.07, 187.28 10.52 M1.75 0.16 C33.02 1.64, 156.17 7.15, 186.91 8.92" stroke="#000000" stroke-width="1" fill="none"></path></g><g transform="translate(126.61656690818756 74.59215219827433) rotate(0 93.49500958195705 5.339385978605719)"><path d="M159.56 19.58 C167.42 16.34, 173.19 14.71, 188.78 8.81 M157.92 17.24 C170.49 13.36, 181.16 10.11, 186.28 8.94" stroke="#000000" stroke-width="1" fill="none"></path></g><g transform="translate(126.61656690818756 74.59215219827433) rotate(0 93.49500958195705 5.339385978605719)"><path d="M160.59 -0.91 C168.16 1.19, 173.66 4.91, 188.78 8.81 M158.95 -3.25 C171.29 1, 181.56 5.88, 186.28 8.94" stroke="#000000" stroke-width="1" fill="none"></path></g></g><mask></mask><g stroke-linecap="round" transform="translate(301 257) rotate(0 89.5 73)"><path d="M63.12 3.52 C73.76 -0.26, 87.78 -0.2, 99.96 0.8 C112.15 1.8, 125.9 4.59, 136.23 9.53 C146.56 14.48, 155.13 22.25, 161.93 30.48 C168.74 38.71, 174.43 49.09, 177.05 58.9 C179.68 68.7, 180.39 79.55, 177.68 89.32 C174.97 99.1, 168.15 109.48, 160.81 117.55 C153.48 125.62, 144.21 132.93, 133.66 137.72 C123.11 142.51, 109.75 145.44, 97.53 146.28 C85.31 147.11, 71.94 145.93, 60.33 142.73 C48.71 139.52, 36.56 133.88, 27.83 127.06 C19.1 120.23, 12.57 110.85, 7.93 101.78 C3.3 92.71, 0.07 82.61, 0.04 72.64 C0.01 62.67, 2.59 51.24, 7.75 41.97 C12.92 32.71, 20.86 23.68, 31.04 17.04 C41.22 10.4, 61.62 4.53, 68.83 2.14 C76.03 -0.26, 73.84 1.34, 74.24 2.67 M103.14 1.34 C114.53 1.68, 127.85 6.01, 138.28 11.28 C148.71 16.56, 159.3 24.66, 165.72 33 C172.14 41.35, 175.31 51.48, 176.79 61.34 C178.26 71.21, 177.7 82.52, 174.58 92.17 C171.46 101.82, 165.79 111.5, 158.08 119.24 C150.38 126.97, 139.25 134.23, 128.34 138.59 C117.44 142.96, 104.39 145, 92.68 145.42 C80.96 145.84, 69.2 144.77, 58.03 141.11 C46.86 137.46, 34.46 130.48, 25.65 123.49 C16.85 116.5, 9.38 108.58, 5.21 99.2 C1.04 89.82, -0.12 77.14, 0.62 67.2 C1.36 57.26, 4 48.16, 9.66 39.54 C15.31 30.91, 24.91 21.69, 34.56 15.43 C44.2 9.16, 55.76 4.46, 67.53 1.94 C79.31 -0.59, 99.31 0.24, 105.22 0.27 C111.13 0.31, 103.5 0.73, 103.01 2.16" stroke="#000000" stroke-width="1" fill="none"></path></g><g transform="translate(320.5 317) rotate(0 70 13)"><text x="70" y="18" font-family="Virgil, Segoe UI Emoji" font-size="20px" fill="#000000" text-anchor="middle" style="white-space: pre;" direction="ltr">op(x) = x - 10</text></g><g stroke-linecap="round"><g transform="translate(138.3028087289233 320.01197026787986) rotate(0 79.79112690286479 1.88486851675043)"><path d="M1.13 -0.44 C27.14 0.44, 130.93 4.77, 156.92 5.48 M0.27 -1.71 C26.6 -1.2, 133.35 2.68, 159.32 3.75" stroke="#000000" stroke-width="1" fill="none"></path></g><g transform="translate(138.3028087289233 320.01197026787986) rotate(0 79.79112690286479 1.88486851675043)"><path d="M130.02 11.92 C142.63 8.5, 150.6 6.49, 158.18 5.11 M130.77 13.12 C139.44 10.75, 146.64 8.22, 158.7 3.43" stroke="#000000" stroke-width="1" fill="none"></path></g><g transform="translate(138.3028087289233 320.01197026787986) rotate(0 79.79112690286479 1.88486851675043)"><path d="M130.81 -8.58 C143.16 -4.34, 150.84 1.29, 158.18 5.11 M131.55 -7.39 C139.83 -4.05, 146.81 -0.86, 158.7 3.43" stroke="#000000" stroke-width="1" fill="none"></path></g></g><mask></mask><g stroke-linecap="round" transform="translate(672 137) rotate(0 96.5 85.5)"><path d="M102.74 -0.27 C114.49 -0.65, 127.83 4.92, 138.98 9.76 C150.13 14.59, 161.36 20.63, 169.65 28.75 C177.94 36.86, 184.74 48.17, 188.71 58.47 C192.68 68.77, 194.57 79.55, 193.48 90.56 C192.39 101.56, 187.71 114.46, 182.17 124.48 C176.63 134.51, 169.4 143.66, 160.24 150.71 C151.08 157.75, 138.85 163.51, 127.21 166.75 C115.57 170, 102.73 170.92, 90.39 170.16 C78.06 169.4, 64.19 166.83, 53.21 162.2 C42.24 157.56, 32.57 150.48, 24.53 142.34 C16.49 134.2, 9 123.89, 4.96 113.38 C0.93 102.87, -0.58 90.2, 0.32 79.29 C1.22 68.38, 4.95 57.72, 10.37 47.93 C15.79 38.15, 23.43 27.82, 32.84 20.6 C42.25 13.38, 53.08 7.63, 66.84 4.62 C80.61 1.61, 105.47 2.15, 115.44 2.52 C125.41 2.88, 127.15 5.52, 126.67 6.83 M110.41 0.16 C122.49 0.35, 136.61 5.36, 146.94 11.13 C157.28 16.89, 165.21 25.83, 172.42 34.74 C179.63 43.65, 187.2 54.38, 190.22 64.59 C193.24 74.8, 192.29 85.11, 190.56 95.99 C188.83 106.87, 185.9 120.15, 179.86 129.86 C173.82 139.58, 164.35 147.7, 154.31 154.3 C144.28 160.91, 131.69 167.04, 119.63 169.5 C107.57 171.96, 94.21 170.88, 81.95 169.06 C69.69 167.24, 56.71 164.02, 46.07 158.58 C35.44 153.15, 25.18 145.25, 18.13 136.44 C11.07 127.64, 6.44 116.39, 3.73 105.75 C1.03 95.11, 0.41 83.12, 1.88 72.59 C3.36 62.05, 6.68 51.53, 12.58 42.54 C18.48 33.55, 27.34 25.08, 37.29 18.65 C47.24 12.22, 60.21 7.13, 72.26 3.95 C84.32 0.77, 103.27 0, 109.62 -0.42 C115.97 -0.85, 110.66 -0.1, 110.34 1.39" stroke="#000000" stroke-width="1" fill="none"></path></g><g transform="translate(689 209.5) rotate(0 79.5 13)"><text x="79.5" y="18" font-family="Virgil, Segoe UI Emoji" font-size="20px" fill="#000000" text-anchor="middle" style="white-space: pre;" direction="ltr">op(x, y) = x + y</text></g><g stroke-linecap="round"><g transform="translate(488 95) rotate(0 94.53078683668753 48.539389518853255)"><path d="M0.82 -0.87 C32.48 15.35, 157.84 80.49, 189.28 96.61 M-0.22 1.29 C31.37 17.74, 156.95 82.07, 188.47 97.95" stroke="#000000" stroke-width="1" fill="none"></path></g><g transform="translate(488 95) rotate(0 94.53078683668753 48.539389518853255)"><path d="M157.25 94.77 C165.28 95.73, 171.27 95.72, 187.91 99.2 M158.63 94.85 C164.42 94.28, 171.09 96.53, 188.34 97.98" stroke="#000000" stroke-width="1" fill="none"></path></g><g transform="translate(488 95) rotate(0 94.53078683668753 48.539389518853255)"><path d="M166.55 76.48 C172.21 81.95, 175.94 86.4, 187.91 99.2 M167.93 76.56 C171.89 79.73, 176.63 85.75, 188.34 97.98" stroke="#000000" stroke-width="1" fill="none"></path></g></g><mask></mask><g stroke-linecap="round"><g transform="translate(484 330) rotate(0 94.90415979660116 -36.211826128140046)"><path d="M0.86 -0.33 C32.68 -12.31, 158.71 -59.99, 189.95 -72.09 M-0.14 -1.56 C31.68 -13.32, 158.28 -58.84, 189.51 -70.6" stroke="#000000" stroke-width="1" fill="none"></path></g><g transform="translate(484 330) rotate(0 94.90415979660116 -36.211826128140046)"><path d="M166.02 -49.67 C171.55 -56.83, 175.24 -59.57, 189.86 -69.84 M167.04 -50.6 C172.95 -56.65, 176.62 -60.99, 189.62 -69.83" stroke="#000000" stroke-width="1" fill="none"></path></g><g transform="translate(484 330) rotate(0 94.90415979660116 -36.211826128140046)"><path d="M158.95 -68.93 C166.01 -71.87, 171.27 -70.35, 189.86 -69.84 M159.97 -69.86 C167.6 -71.36, 172.95 -71.08, 189.62 -69.83" stroke="#000000" stroke-width="1" fill="none"></path></g></g><mask></mask></svg>