<svg xmlns="http://www.w3.org/2000/svg" xmlns:xlink="http://www.w3.org/1999/xlink" xmlns:lucid="lucid" width="400" height="320"><g transform="translate(-440 -180)" lucid:page-tab-id="wHEbI.B-HPim"><path d="M0 0h1870.4v1323.2H0z" fill="#333"/><path d="M540 240c0 22.1-17.9 40-40 40s-40-17.9-40-40 17.9-40 40-40 40 17.9 40 40z" stroke="#000" stroke-width="2" fill="#de5f85"/><use xlink:href="#a" transform="matrix(1,0,0,1,465,205) translate(1.125 38.4625)"/><path d="M820 240c0 22.1-17.9 40-40 40s-40-17.9-40-40 17.9-40 40-40 40 17.9 40 40z" stroke="#000" stroke-width="2" fill="#7ab648"/><use xlink:href="#a" transform="matrix(1,0,0,1,745,205) translate(1.125 38.4625)"/><path d="M700 430c0 27.6-22.4 50-50 50s-50-22.4-50-50 22.4-50 50-50 50 22.4 50 50z" stroke="#000" stroke-width="2" fill="#fcc438"/><use xlink:href="#b" transform="matrix(1,0,0,1,605,385) translate(4.049999999999997 48.15)"/><path d="M781 431h-79v-2h77v-67.53h2zm0-91.13h-2V299.5h2zM784.64 298.5h-9.28l4.64-14.26z" fill="#fff"/><path d="M786 299.5h-12l6-18.5zm-9.26-2h6.52L780 287.47zM702.03 431h-1.08l.05-1-.03-1h1.06z" fill="#fff"/><use xlink:href="#c" transform="matrix(1,0,0,1,743.025,339.8666666666667) translate(0 14.4)"/><use xlink:href="#d" transform="matrix(1,0,0,1,743.025,339.8666666666667) translate(41 14.4)"/><path d="M501 429h97v2h-99v-67.33h2zm0-86.93h-2V299.5h2z" fill="#fff"/><path d="M599 430l.03 1h-1.06v-2h1.08zM504.64 298.5h-9.28l4.64-14.26z" fill="#fff"/><path d="M506 299.5h-12l6-18.5zm-9.26-2h6.52L500 287.47z" fill="#fff"/><use xlink:href="#c" transform="matrix(1,0,0,1,463.025,342.0706663342567) translate(0 14.4)"/><use xlink:href="#d" transform="matrix(1,0,0,1,463.025,342.0706663342567) translate(41 14.4)"/><defs><path d="M63-220v92h138v28H63V0H30v-248h175v28H63" id="e"/><path d="M100-194c62-1 85 37 85 99 1 63-27 99-86 99S16-35 15-95c0-66 28-99 85-99zM99-20c44 1 53-31 53-75 0-43-8-75-51-75s-53 32-53 75 10 74 51 75" id="f"/><path d="M24 0v-261h32V0H24" id="g"/><path d="M206 0h-36l-40-164L89 0H53L-1-190h32L70-26l43-164h34l41 164 42-164h31" id="h"/><path d="M100-194c63 0 86 42 84 106H49c0 40 14 67 53 68 26 1 43-12 49-29l28 8c-11 28-37 45-77 45C44 4 14-33 15-96c1-61 26-98 85-98zm52 81c6-60-76-77-97-28-3 7-6 17-6 28h103" id="i"/><path d="M114-163C36-179 61-72 57 0H25l-1-190h30c1 12-1 29 2 39 6-27 23-49 58-41v29" id="j"/><g id="a"><use transform="matrix(0.05,0,0,0.05,0,0)" xlink:href="#e"/><use transform="matrix(0.05,0,0,0.05,10.950000000000001,0)" xlink:href="#f"/><use transform="matrix(0.05,0,0,0.05,20.950000000000003,0)" xlink:href="#g"/><use transform="matrix(0.05,0,0,0.05,24.900000000000002,0)" xlink:href="#g"/><use transform="matrix(0.05,0,0,0.05,28.85,0)" xlink:href="#f"/><use transform="matrix(0.05,0,0,0.05,38.85,0)" xlink:href="#h"/><use transform="matrix(0.05,0,0,0.05,51.800000000000004,0)" xlink:href="#i"/><use transform="matrix(0.05,0,0,0.05,61.800000000000004,0)" xlink:href="#j"/></g><path d="M212-179c-10-28-35-45-73-45-59 0-87 40-87 99 0 60 29 101 89 101 43 0 62-24 78-52l27 14C228-24 195 4 139 4 59 4 22-46 18-125c-6-104 99-153 187-111 19 9 31 26 39 46" id="k"/><path d="M141-36C126-15 110 5 73 4 37 3 15-17 15-53c-1-64 63-63 125-63 3-35-9-54-41-54-24 1-41 7-42 31l-33-3c5-37 33-52 76-52 45 0 72 20 72 64v82c-1 20 7 32 28 27v20c-31 9-61-2-59-35zM48-53c0 20 12 33 32 33 41-3 63-29 60-74-43 2-92-5-92 41" id="l"/><path d="M117-194c89-4 53 116 60 194h-32v-121c0-31-8-49-39-48C34-167 62-67 57 0H25l-1-190h30c1 10-1 24 2 32 11-22 29-35 61-36" id="m"/><path d="M85-194c31 0 48 13 60 33l-1-100h32l1 261h-30c-2-10 0-23-3-31C134-8 116 4 85 4 32 4 16-35 15-94c0-66 23-100 70-100zm9 24c-40 0-46 34-46 75 0 40 6 74 45 74 42 0 51-32 51-76 0-42-9-74-50-73" id="n"/><path d="M24-231v-30h32v30H24zM24 0v-190h32V0H24" id="o"/><path d="M59-47c-2 24 18 29 38 22v24C64 9 27 4 27-40v-127H5v-23h24l9-43h21v43h35v23H59v120" id="p"/><g id="b"><use transform="matrix(0.05,0,0,0.05,0,0)" xlink:href="#k"/><use transform="matrix(0.05,0,0,0.05,12.950000000000001,0)" xlink:href="#l"/><use transform="matrix(0.05,0,0,0.05,22.950000000000003,0)" xlink:href="#m"/><use transform="matrix(0.05,0,0,0.05,32.95,0)" xlink:href="#n"/><use transform="matrix(0.05,0,0,0.05,42.95,0)" xlink:href="#o"/><use transform="matrix(0.05,0,0,0.05,46.900000000000006,0)" xlink:href="#n"/><use transform="matrix(0.05,0,0,0.05,56.900000000000006,0)" xlink:href="#l"/><use transform="matrix(0.05,0,0,0.05,66.9,0)" xlink:href="#p"/><use transform="matrix(0.05,0,0,0.05,71.9,0)" xlink:href="#i"/></g><path fill="#fff" d="M137 0h-34L2-248h35l83 218 83-218h36" id="q"/><path fill="#fff" d="M100-194c62-1 85 37 85 99 1 63-27 99-86 99S16-35 15-95c0-66 28-99 85-99zM99-20c44 1 53-31 53-75 0-43-8-75-51-75s-53 32-53 75 10 74 51 75" id="r"/><path fill="#fff" d="M59-47c-2 24 18 29 38 22v24C64 9 27 4 27-40v-127H5v-23h24l9-43h21v43h35v23H59v120" id="s"/><path fill="#fff" d="M100-194c63 0 86 42 84 106H49c0 40 14 67 53 68 26 1 43-12 49-29l28 8c-11 28-37 45-77 45C44 4 14-33 15-96c1-61 26-98 85-98zm52 81c6-60-76-77-97-28-3 7-6 17-6 28h103" id="t"/><g id="c"><use transform="matrix(0.05,0,0,0.05,0,0)" xlink:href="#q"/><use transform="matrix(0.05,0,0,0.05,11,0)" xlink:href="#r"/><use transform="matrix(0.05,0,0,0.05,21,0)" xlink:href="#s"/><use transform="matrix(0.05,0,0,0.05,26,0)" xlink:href="#t"/></g><path fill="#fff" d="M233-177c-1 41-23 64-60 70L243 0h-38l-65-103H63V0H30v-248c88 3 205-21 203 71zM63-129c60-2 137 13 137-47 0-61-80-42-137-45v92" id="u"/><path fill="#fff" d="M145-31C134-9 116 4 85 4 32 4 16-35 15-94c0-59 17-99 70-100 32-1 48 14 60 33 0-11-1-24 2-32h30l-1 268h-32zM93-21c41 0 51-33 51-76s-8-73-50-73c-40 0-46 35-46 75s5 74 45 74" id="v"/><g id="d"><use transform="matrix(0.05,0,0,0.05,0,0)" xlink:href="#u"/><use transform="matrix(0.05,0,0,0.05,12.950000000000001,0)" xlink:href="#t"/><use transform="matrix(0.05,0,0,0.05,22.950000000000003,0)" xlink:href="#v"/></g></defs></g></svg>