<svg xmlns="http://www.w3.org/2000/svg" xmlns:xlink="http://www.w3.org/1999/xlink" xmlns:lucid="lucid" width="380" height="300"><g transform="translate(-460 -180)" lucid:page-tab-id="b7CbOfZ8-sRc"><path d="M0 0h1870.4v1323.2H0z" fill="#333"/><path d="M560 240c0 22.1-17.9 40-40 40s-40-17.9-40-40 17.9-40 40-40 40 17.9 40 40z" stroke="#000" stroke-width="2" fill="#de5f85"/><use xlink:href="#a" transform="matrix(1,0,0,1,485,205) translate(1.125 38.4625)"/><path d="M820 240c0 22.1-17.9 40-40 40s-40-17.9-40-40 17.9-40 40-40 40 17.9 40 40z" stroke="#000" stroke-width="2" fill="#7ab648"/><use xlink:href="#a" transform="matrix(1,0,0,1,745,205) translate(1.125 38.4625)"/><path d="M680 420c0 22.1-17.9 40-40 40s-40-17.9-40-40 17.9-40 40-40 40 17.9 40 40z" stroke="#000" stroke-width="2" fill="#fcc438"/><use xlink:href="#a" transform="matrix(1,0,0,1,605,385) translate(1.125 38.4625)"/><path d="M579.5 240h141" stroke="#fff" stroke-width="2" fill="none"/><path d="M564.24 240l14.26-4.64v9.28zM735.76 240l-14.26 4.64v-9.28z" stroke="#fff" stroke-width="2" fill="#fff"/><path d="M780 299.5V420h-80.5" stroke="#fff" stroke-width="2" fill="none"/><path d="M780 284.24l4.64 14.26h-9.28zM684.24 420l14.26-4.64v9.28z" stroke="#fff" stroke-width="2" fill="#fff"/><path d="M580.5 420H520V299.5" stroke="#fff" stroke-width="2" fill="none"/><path d="M595.76 420l-14.26 4.64v-9.28zM520 284.24l4.64 14.26h-9.28z" stroke="#fff" stroke-width="2" fill="#fff"/><defs><path d="M63-220v92h138v28H63V0H30v-248h175v28H63" id="b"/><path d="M100-194c62-1 85 37 85 99 1 63-27 99-86 99S16-35 15-95c0-66 28-99 85-99zM99-20c44 1 53-31 53-75 0-43-8-75-51-75s-53 32-53 75 10 74 51 75" id="c"/><path d="M24 0v-261h32V0H24" id="d"/><path d="M206 0h-36l-40-164L89 0H53L-1-190h32L70-26l43-164h34l41 164 42-164h31" id="e"/><path d="M100-194c63 0 86 42 84 106H49c0 40 14 67 53 68 26 1 43-12 49-29l28 8c-11 28-37 45-77 45C44 4 14-33 15-96c1-61 26-98 85-98zm52 81c6-60-76-77-97-28-3 7-6 17-6 28h103" id="f"/><path d="M114-163C36-179 61-72 57 0H25l-1-190h30c1 12-1 29 2 39 6-27 23-49 58-41v29" id="g"/><g id="a"><use transform="matrix(0.05,0,0,0.05,0,0)" xlink:href="#b"/><use transform="matrix(0.05,0,0,0.05,10.950000000000001,0)" xlink:href="#c"/><use transform="matrix(0.05,0,0,0.05,20.950000000000003,0)" xlink:href="#d"/><use transform="matrix(0.05,0,0,0.05,24.900000000000002,0)" xlink:href="#d"/><use transform="matrix(0.05,0,0,0.05,28.85,0)" xlink:href="#c"/><use transform="matrix(0.05,0,0,0.05,38.85,0)" xlink:href="#e"/><use transform="matrix(0.05,0,0,0.05,51.800000000000004,0)" xlink:href="#f"/><use transform="matrix(0.05,0,0,0.05,61.800000000000004,0)" xlink:href="#g"/></g></defs></g></svg>