<svg xmlns="http://www.w3.org/2000/svg" xmlns:xlink="http://www.w3.org/1999/xlink" xmlns:lucid="lucid" width="380" height="300"><g transform="translate(-460 -180)" lucid:page-tab-id="egDbBxDUzlAG"><path d="M0 0h1870.4v1323.2H0z" fill="#333"/><path d="M560 240c0 22.1-17.9 40-40 40s-40-17.9-40-40 17.9-40 40-40 40 17.9 40 40z" stroke="#000" stroke-width="2" fill="#de5f85"/><use xlink:href="#a" transform="matrix(1,0,0,1,485,205) translate(1.125 38.4625)"/><path d="M820 240c0 22.1-17.9 40-40 40s-40-17.9-40-40 17.9-40 40-40 40 17.9 40 40z" stroke="#000" stroke-width="2" fill="#7ab648"/><use xlink:href="#a" transform="matrix(1,0,0,1,745,205) translate(1.125 38.4625)"/><path d="M680 420c0 22.1-17.9 40-40 40s-40-17.9-40-40 17.9-40 40-40 40 17.9 40 40z" stroke="#000" stroke-width="2" fill="#fcc438"/><use xlink:href="#b" transform="matrix(1,0,0,1,605,385) translate(5.549999999999997 38.4625)"/><path d="M579.5 240h141" stroke="#fff" stroke-width="2" fill="none"/><path d="M564.24 240l14.26-4.64v9.28zM735.76 240l-14.26 4.64v-9.28z" stroke="#fff" stroke-width="2" fill="#fff"/><path d="M780 299.5V420h-80.5" stroke="#fff" stroke-width="2" fill="none"/><path d="M780 284.24l4.64 14.26h-9.28zM684.24 420l14.26-4.64v9.28z" stroke="#fff" stroke-width="2" fill="#fff"/><path d="M580.5 420H520V299.5" stroke="#fff" stroke-width="2" fill="none"/><path d="M595.76 420l-14.26 4.64v-9.28zM520 284.24l4.64 14.26h-9.28z" stroke="#fff" stroke-width="2" fill="#fff"/><defs><path d="M63-220v92h138v28H63V0H30v-248h175v28H63" id="c"/><path d="M100-194c62-1 85 37 85 99 1 63-27 99-86 99S16-35 15-95c0-66 28-99 85-99zM99-20c44 1 53-31 53-75 0-43-8-75-51-75s-53 32-53 75 10 74 51 75" id="d"/><path d="M24 0v-261h32V0H24" id="e"/><path d="M206 0h-36l-40-164L89 0H53L-1-190h32L70-26l43-164h34l41 164 42-164h31" id="f"/><path d="M100-194c63 0 86 42 84 106H49c0 40 14 67 53 68 26 1 43-12 49-29l28 8c-11 28-37 45-77 45C44 4 14-33 15-96c1-61 26-98 85-98zm52 81c6-60-76-77-97-28-3 7-6 17-6 28h103" id="g"/><path d="M114-163C36-179 61-72 57 0H25l-1-190h30c1 12-1 29 2 39 6-27 23-49 58-41v29" id="h"/><g id="a"><use transform="matrix(0.05,0,0,0.05,0,0)" xlink:href="#c"/><use transform="matrix(0.05,0,0,0.05,10.950000000000001,0)" xlink:href="#d"/><use transform="matrix(0.05,0,0,0.05,20.950000000000003,0)" xlink:href="#e"/><use transform="matrix(0.05,0,0,0.05,24.900000000000002,0)" xlink:href="#e"/><use transform="matrix(0.05,0,0,0.05,28.85,0)" xlink:href="#d"/><use transform="matrix(0.05,0,0,0.05,38.85,0)" xlink:href="#f"/><use transform="matrix(0.05,0,0,0.05,51.800000000000004,0)" xlink:href="#g"/><use transform="matrix(0.05,0,0,0.05,61.800000000000004,0)" xlink:href="#h"/></g><path d="M24 0v-248h52v208h133V0H24" id="i"/><path d="M185-48c-13 30-37 53-82 52C43 2 14-33 14-96s30-98 90-98c62 0 83 45 84 108H66c0 31 8 55 39 56 18 0 30-7 34-22zm-45-69c5-46-57-63-70-21-2 6-4 13-4 21h74" id="j"/><path d="M133-34C117-15 103 5 69 4 32 3 11-16 11-54c-1-60 55-63 116-61 1-26-3-47-28-47-18 1-26 9-28 27l-52-2c7-38 36-58 82-57s74 22 75 68l1 82c-1 14 12 18 25 15v27c-30 8-71 5-69-32zm-48 3c29 0 43-24 42-57-32 0-66-3-65 30 0 17 8 27 23 27" id="k"/><path d="M88-194c31-1 46 15 58 34l-1-101h50l1 261h-48c-2-10 0-23-3-31C134-8 116 4 84 4 32 4 16-41 15-95c0-56 19-97 73-99zm17 164c33 0 40-30 41-66 1-37-9-64-41-64s-38 30-39 65c0 43 13 65 39 65" id="l"/><path d="M135-150c-39-12-60 13-60 57V0H25l-1-190h47c2 13-1 29 3 40 6-28 27-53 61-41v41" id="m"/><g id="b"><use transform="matrix(0.05,0,0,0.05,0,0)" xlink:href="#i"/><use transform="matrix(0.05,0,0,0.05,10.950000000000001,0)" xlink:href="#j"/><use transform="matrix(0.05,0,0,0.05,20.950000000000003,0)" xlink:href="#k"/><use transform="matrix(0.05,0,0,0.05,30.950000000000003,0)" xlink:href="#l"/><use transform="matrix(0.05,0,0,0.05,41.900000000000006,0)" xlink:href="#j"/><use transform="matrix(0.05,0,0,0.05,51.900000000000006,0)" xlink:href="#m"/></g></defs></g></svg>